<?xml version="1.0" encoding="utf-8"?>
<!-- Generator: Adobe Illustrator 19.2.1, SVG Export Plug-In . SVG Version: 6.00 Build 0)  -->
<svg version="1.1" id="Capa_1" xmlns="http://www.w3.org/2000/svg" xmlns:xlink="http://www.w3.org/1999/xlink" x="0px" y="0px"
	 width="972.3px" height="150.3px" viewBox="0 0 972.3 150.3" style="enable-background:new 0 0 972.3 150.3;" xml:space="preserve"
	>
<style type="text/css">
	.st0{fill:#498400;}
</style>
<g>
	<g>
		<path id="XMLID_670_" class="st0" d="M72.8,150.3l-0.9-0.4c-0.8-0.3-18.6-7.6-36.6-26.4C18.8,106.2-0.7,75.3,0,26.9v-1.1l0.9-0.7
			C2.1,24,31.2,0,73.9,0c42.8,0,69.7,24.1,70.9,25.1l0.8,0.7V27c0,48.4-19.5,79.2-35.8,96.6c-17.7,18.8-35.3,26.1-36,26.4
			L72.8,150.3z M5,28.2c-0.4,46,18.2,75.4,33.9,91.9c14.9,15.7,30,23.1,33.9,24.8c3.8-1.8,18.8-9.3,33.5-25
			c15.5-16.5,34-45.9,34.3-91.8C135.9,24.2,110.7,5,73.9,5S10.1,24.3,5,28.2z"/>
		<path class="st0" d="M72.8,10.8c-37.3,0-62,22.1-62,22.1c-0.7,76.9,62,105.2,62,105.2s62.7-28.3,62-105.2
			C134.8,32.9,110.1,10.8,72.8,10.8z M78.1,22.5c0,0,8.2,2.3,14.5,15.9c0,0,7.6,7.5,7.6,12.7s-7.6,16.3-19.7,16.3s-3.7-29-3.7-29
			S75.9,30.3,78.1,22.5z M53,38.4c6.4-13.6,14.5-15.9,14.5-15.9c2.2,7.9,1.3,15.9,1.3,15.9s8.5,29-3.7,29S45.4,56.2,45.4,51
			S53,38.4,53,38.4z M41.9,93.2c-1.2,0-2.3-0.5-3-1.4c-5.2-6.3-9.6-19.2,0.2-34.6c0.7-1.2,2.4-1.1,3.1,0.1c2.4,4.1,7.9,12,15.7,15.9
			c1.5,0.8,2.4,2.4,2.1,4.1C58,91.7,46.4,93.2,41.9,93.2z M93.8,102.9c-3.2,4.6-10.1,12.2-21,12.7l0,0l0,0l0,0
			c-10.9-0.4-17.8-8-21-12.7c-1.4-2-1.1-4.6,0.5-6.4l16.7-18c2-2.2,5.4-2.2,7.5,0l16.7,18C94.9,98.3,95.1,101,93.8,102.9z
			 M103.8,93.2c-4.5,0-16.1-1.5-18.1-16c-0.2-1.7,0.6-3.3,2.1-4.1c7.7-3.9,13.2-11.8,15.7-15.9c0.7-1.2,2.4-1.2,3.1-0.1
			c9.8,15.4,5.4,28.3,0.2,34.6C106,92.7,104.9,93.2,103.8,93.2z"/>
	</g>
	<g id="XMLID_259_">
		<path id="XMLID_260_" class="st0" d="M200.6,106.3l-6.8,0.1c-4.8,0.1-8.3,0.2-10.5,0.3c-2,0.2-3.4,0.3-4.2,0.3
			c-2.1,0-3.7-0.5-4.9-1.6s-1.8-2.3-1.8-3.8c0-0.9,0.2-1.7,0.7-2.2c0.4-0.5,1.5-1.4,3.2-2.5c1-0.7,1.7-1.7,2-3.2
			c0.4-1.4,0.8-4.5,1.2-9.3c0.6-7.4,1-16.5,1-27.3c0-4-0.3-6.6-0.8-7.9c-0.5-1.3-1.8-2.4-3.7-3.2c-2.2-0.9-3.4-2.3-3.4-4.2
			c0-1.5,0.7-2.7,2-3.7c1.3-0.9,3.1-1.4,5.2-1.4c1.2,0,2.6,0.1,4.4,0.2c3,0.1,6.2,0.2,9.7,0.2c2.5,0,7.5-0.1,15-0.3
			c2.3-0.1,4.5-0.1,6.4-0.1c4.5,0,8.1,0.4,10.9,1.1c2.8,0.7,5.2,2,7.2,3.7c3.3,2.8,5,6.6,5,11.3c0,2.3-0.5,4.6-1.5,6.8s-2.3,4-4,5.3
			c-1.2,0.9-1.8,1.8-1.8,2.6c0,0.8,0.7,1.6,2.1,2.1c2.8,1.1,5.3,3,7.6,5.6c2.3,2.7,3.5,6.2,3.5,10.3c0,4.9-1.8,9.3-5.3,13.4
			c-4.7,5.3-11.7,8-20.9,8c-1.3,0-4.3-0.1-9.2-0.3C204.4,106.4,201.6,106.3,200.6,106.3z M204.1,51.2v10.5c0,1.7,0.2,2.8,0.6,3.5
			c0.4,0.7,1.2,1,2.2,1c2.5,0,4.4-0.8,5.5-2.3s1.8-4,1.8-7.2s-0.6-5.6-1.8-7.4c-1.2-1.7-2.9-2.6-5.2-2.6c-1.2,0-2,0.3-2.5,1
			C204.3,48.3,204.1,49.5,204.1,51.2z M204.1,80.4v4.8c0,4.4,0.3,7.4,1,8.8c0.6,1.5,1.9,2.2,3.9,2.2c5.1,0,7.7-3,7.7-9
			c0-7.5-2.9-11.3-8.6-11.3c-1.5,0-2.5,0.3-3.1,1C204.4,77.6,204.1,78.8,204.1,80.4z"/>
		<path id="XMLID_272_" class="st0" d="M269.5,35.9c3.9,0,7.5,0.3,10.9,1c4.6,0.9,6.9,2.9,6.9,5.8c0,1-0.2,1.7-0.7,2.2
			s-1.6,1.2-3.5,2.2c-1.6,0.8-2.6,2.5-3.1,5.1s-0.7,7.8-0.7,15.4c0,12.9,0.3,20.9,1,24c0.2,1,0.6,1.7,1.1,2.3
			c0.5,0.5,1.3,1.1,2.6,1.7c2.2,1,3.4,2.5,3.4,4.4c0,2.7-2.1,4.6-6.2,5.6c-4.5,1.1-9.9,1.6-16.4,1.6c-11,0-16.6-2.1-16.6-6.3
			c0-1.5,1.1-2.9,3.3-4.3c1.7-1,2.6-2.4,2.9-4.2c0.6-3.9,1-12.1,1-24.6c0-8.7-0.4-14.2-1.3-16.7c-0.5-1.4-1.6-2.6-3.4-3.8
			c-1.4-0.9-2.3-1.7-2.8-2.3s-0.7-1.4-0.7-2.3c0-1.5,0.7-2.6,2.1-3.5s3.9-1.6,7.4-2.3C260.8,36.4,265.1,35.9,269.5,35.9z"/>
		<path id="XMLID_274_" class="st0" d="M329.5,35.6c4.9,0,9.7,1.1,14.3,3.3c2.2,1,3.7,1.5,4.5,1.5c0.6,0,1.6-0.2,2.9-0.5
			c0.4-0.1,0.9-0.2,1.5-0.2c1.8,0,3.3,0.8,4.6,2.4c3.3,3.9,4.9,8.8,4.9,14.6c0,4.1-1.4,7.1-4.2,9c-1.5,1-3.2,1.5-5.1,1.5
			c-1.7,0-3.1-0.4-4.2-1.1s-2.1-2.1-3.1-4c-1.5-2.7-2.6-4.6-3.6-5.8c-0.9-1.2-2-2.2-3.4-3.2c-3.3-2.3-6.7-3.5-10.3-3.5
			c-3.5,0-6.3,1.3-8.3,3.8s-3.1,5.9-3.1,10.1c0,5.8,1.5,11.2,4.4,16c4,6.5,9.7,9.7,17.2,9.7c2.7,0,5.5-0.5,8.2-1.4s4.8-2.1,6.3-3.6
			c1.3-1.2,2.3-1.8,3.1-1.8c1.2,0,2.2,0.6,3,1.7s1.3,2.4,1.3,4c0,2-0.6,4.2-1.8,6.6c-1.2,2.4-2.6,4.4-4.3,5.7
			c-0.7,0.6-2.2,1.1-4.4,1.5c-1.3,0.2-3,0.9-5.1,1.9c-5,2.4-10.2,3.6-15.6,3.6c-5.7,0-11.3-1.3-16.9-3.8
			c-6.5-2.9-11.7-7.5-15.5-13.6c-3.7-5.9-5.6-12.1-5.6-18.6c0-7.5,2.3-14.4,7-20.6c4.1-5.4,9.4-9.5,15.9-12.3
			C319,36.7,324.2,35.6,329.5,35.6z"/>
		<path id="XMLID_282_" class="st0" d="M388.5,35.9c10.6,0,15.9,2.2,15.9,6.6c0,1.2-0.3,2.2-0.8,2.9s-1.6,1.6-3.1,2.5
			c-1.3,0.8-2.2,1.9-2.5,3.2s-0.5,4-0.5,8c0,2.4,0.4,3.8,1.3,4.4c0.5,0.3,1.3,0.5,2.3,0.6c1,0.1,3.5,0.1,7.3,0.1
			c3.5,0,5.7-0.2,6.5-0.6s1.3-1.3,1.3-2.8c0-4.5-0.2-7.6-0.6-9.3c-0.4-1.8-1.2-3-2.4-3.6c-1.5-0.8-2.5-1.6-2.9-2.2
			c-0.5-0.6-0.7-1.4-0.7-2.4c0-1.4,0.5-2.7,1.6-3.8c1-1.1,2.4-1.9,4.1-2.3c3.5-0.8,7.9-1.3,13.3-1.3c6.2,0,10.8,0.6,13.8,1.7
			c3,1.1,4.4,2.9,4.4,5.3c0,2-1,3.6-3.1,4.6c-1.3,0.6-2.2,1.2-2.6,1.8s-0.7,1.6-1,3.1c-0.1,0.8-0.3,4.6-0.5,11.3s-0.3,12-0.3,15.9
			c0,6.9,0.3,11.2,0.8,13.1c0.3,1,0.6,1.7,0.9,2s1.4,1,3.2,2c1.3,0.7,1.9,1.8,1.9,3.3c0,2.6-1.5,4.4-4.6,5.6s-8,1.8-14.9,1.8
			c-6,0-10.5-0.6-13.4-1.8c-2.6-1.1-3.9-2.8-3.9-5c0-1.9,1-3.4,3-4.5c1-0.5,1.7-1.1,2-1.6c0.4-0.5,0.7-1.5,1-3
			c0.6-2.8,0.9-6.3,0.9-10.5c0-2.1-0.3-3.5-0.9-4s-2.3-0.8-4.9-0.8c-6.1,0-9.9,0.3-11.6,1c-0.7,0.3-1.1,1.1-1.3,2.4
			c-0.2,1.6-0.3,3.6-0.3,6c0,3.9,0.5,6.6,1.6,8.3c0.4,0.5,1.3,1.2,2.6,2.1c1.4,0.8,2.1,2.2,2.1,4c0,2.4-1.6,4.2-4.9,5.4
			c-3.3,1.3-8,1.9-14.1,1.9c-5.6,0-10.1-0.6-13.6-1.7c-1.5-0.5-2.7-1.2-3.6-2.2c-0.9-0.9-1.3-2-1.3-3.1s0.3-2,0.8-2.6
			s1.7-1.4,3.6-2.3c0.9-0.5,1.6-1.1,2-1.8c0.4-0.7,0.7-2,0.9-3.8c0.5-4,0.8-9.1,0.8-15.5c0-1.2,0-2.6-0.1-4.2
			c-0.1-8.1-0.2-12.8-0.2-13.9c0-2.9-0.2-4.8-0.7-5.8c-0.5-0.9-1.9-2-4.1-3.1c-1.5-0.7-2.2-1.8-2.2-3.2c0-3.4,3.3-5.8,10-7.1
			C380.5,36.3,384.4,35.9,388.5,35.9z"/>
		<path id="XMLID_284_" class="st0" d="M489.1,35.6c8.7,0,16.3,2.5,22.8,7.5c4.4,3.4,8,7.9,10.7,13.3c2.7,5.4,4,10.8,4,16.3
			c0,8-2.6,15.1-7.9,21.4c-4.5,5.4-10.3,9.2-17.5,11.5c-4.4,1.4-8.9,2.1-13.4,2.1c-5.9,0-11.5-1.2-16.8-3.7
			c-6.5-2.9-11.5-7.4-15.2-13.4c-3.6-5.8-5.3-12.1-5.3-19.1c0-8.1,2.3-15.2,6.9-21.3c4.1-5.5,9.5-9.5,16.4-12.1
			C478.3,36.5,483.5,35.6,489.1,35.6z M484.3,50.2c-2.8,0-5.1,1.3-6.8,3.8c-1.3,1.9-1.9,4.1-1.9,6.8c0,3.8,0.8,8.3,2.3,13.3
			c1.6,5,3.5,9.5,5.9,13.4c1,1.7,2.3,3,3.9,4c1.5,1,3.1,1.5,4.7,1.5c2.6,0,4.6-1,6.2-2.9s2.4-4.5,2.4-7.6c0-4.1-0.7-8.5-2-13.3
			c-1.3-4.7-3-8.8-5.1-12.1c-1.3-2.1-2.8-3.7-4.5-4.9S486,50.2,484.3,50.2z"/>
		<path id="XMLID_287_" class="st0" d="M559,39.4l25.3,22.2c2.4,2.1,4.1,3.1,5.1,3.1c1.8,0,2.6-1.9,2.6-5.6c0-4.3-0.3-7.2-0.8-8.7
			c-0.5-1.6-1.6-2.7-3.2-3.5c-1.3-0.6-2.3-1.3-2.8-2.1c-0.5-0.7-0.8-1.7-0.8-2.8c0-2.8,1.9-4.7,5.8-5.5c1.6-0.3,4.4-0.5,8.3-0.5
			c5.1,0,8.7,0.3,10.6,0.9c3.1,0.9,4.7,2.7,4.7,5.4c0,2.2-1.3,3.9-3.8,5c-1,0.4-1.7,0.8-2.1,1.2c-0.4,0.3-0.7,0.8-1,1.5
			c-0.9,2.2-1.4,6.5-1.4,12.7v16.6c0,2.5,0,6,0.1,10.4c0,6-0.3,10.3-1.1,12.9c-0.9,3.3-2.6,4.9-5,4.9c-1,0-2-0.2-2.7-0.7
			c-0.8-0.4-2-1.5-3.8-3l-30.1-27c-2.1-1.9-3.8-2.8-5.2-2.8c-2.1,0-3.1,2.9-3.1,8.6c0,4.7,0.3,7.9,0.8,9.7c0.5,1.7,1.6,3,3.2,3.8
			c2.3,1.1,3.4,2.6,3.4,4.4c0,4.7-5.1,7.1-15.2,7.1c-4.6,0-8.1-0.6-10.6-1.8c-2.5-1.2-3.8-2.9-3.8-5.1c0-1.2,0.2-2,0.7-2.6
			s1.5-1.4,3.2-2.3c1.6-0.9,2.6-2.6,2.9-5c0.6-4.4,0.9-10.7,0.9-18.8c0-8.7-0.5-15.1-1.5-19.1c-0.4-1.5-0.8-2.5-1.4-3.3
			c-0.6-0.7-1.5-1.4-2.8-2c-1.5-0.7-2.6-1.5-3.2-2.2c-0.6-0.7-0.9-1.6-0.9-2.6c0-3.3,2.8-5.3,8.4-6.1c1.9-0.3,5.2-0.4,10-0.4
			c2.7,0,4.7,0.2,5.9,0.6C555.8,37,557.3,38,559,39.4z"/>
		<path id="XMLID_289_" class="st0" d="M680.7,47.5c-2.3,0-3.8,0.6-4.3,1.8c-0.4,0.9-0.8,2.6-1.1,5.2c-0.4,2.6-0.5,4.9-0.5,7
			c0,1.3,0.4,2.1,1.2,2.6s2.3,0.7,4.6,0.7c1.5,0,2.6-0.3,3.3-0.8c0.7-0.5,1.2-1.5,1.5-2.7c0.8-3.7,2.4-5.5,4.8-5.5
			c4.1,0,6.2,4.9,6.2,14.8c0,6.3-0.9,10.9-2.7,13.8c-1.1,1.8-2.6,2.7-4.5,2.7c-2,0-3.2-1.3-3.5-4c-0.2-1.7-0.4-2.9-0.6-3.7
			s-0.7-1.4-1.4-2c-1.1-1.1-2.7-1.6-4.9-1.6c-1.5,0-2.6,0.3-3.1,0.8s-0.8,1.6-0.7,3.1c0,0.3,0,1.8-0.1,4.7c0,5.9,0.6,9.4,1.8,10.7
			c0.4,0.5,0.8,0.8,1.2,1s1.5,0.4,3.3,0.6c0.9,0.1,1.6,0.6,2.2,1.4c0.6,0.8,0.9,1.7,0.9,2.7c0,2.6-1.5,4.3-4.6,5
			c-4.4,1-10.6,1.6-18.5,1.6c-7,0-11.8-0.4-14.4-1.2c-1.2-0.4-2.2-1.1-2.9-2c-0.7-1-1.1-2.1-1.1-3.3c0-1.5,0.5-2.7,1.6-3.6
			c0.3-0.2,1.2-0.6,2.8-1.3c1.9-0.7,3-2.5,3.4-5.2c0.6-4.2,0.9-13.7,0.9-28.5c0-6.4-0.2-10.5-0.7-12.4c-0.4-1.9-1.5-3.2-3.2-4
			c-1.7-0.7-2.8-1.4-3.3-2s-0.8-1.4-0.8-2.4c0-1.5,0.7-2.7,2.2-3.7s3.3-1.5,5.4-1.5c1.4,0,3.3,0.1,5.9,0.3
			c5.5,0.4,12.1,0.7,19.8,0.7c12.3,0,20.6-0.3,24.8-1c0.6-0.1,1-0.1,1.3-0.1c1.2,0,2.3,0.7,3.4,2c3,3.8,4.5,8,4.5,12.6
			c0,2.1-0.5,3.8-1.5,5c-1,1.3-2.3,1.9-3.9,1.9c-1.2,0-2.1-0.2-2.7-0.7c-0.6-0.5-2.2-2.1-4.7-5c-1.5-1.8-3.4-2.9-5.5-3.5
			C690.5,48,686.5,47.6,680.7,47.5z"/>
		<path id="XMLID_292_" class="st0" d="M745.4,77.2c-1.3,0-2.1,0.4-2.5,1.2c-0.4,0.8-0.5,2.6-0.5,5.4c0,4.3,0.3,7.7,0.8,10.1
			c0.2,0.7,0.4,1.2,0.8,1.6c0.3,0.4,1,0.8,1.9,1.4c2,1.1,3,2.6,3,4.4c0,2.2-1.4,3.8-4.2,4.8c-2.8,0.9-7.6,1.4-14.4,1.4
			c-12.5,0-18.8-2.4-18.8-7.1c0-0.8,0.2-1.5,0.6-2c0.4-0.5,1.2-1.2,2.5-2.1c1.5-1,2.5-2.1,3-3.5c0.5-1.3,0.9-3.6,1.1-6.9
			c0.2-2.4,0.3-11,0.3-25.9c0-4.7-0.2-7.9-0.7-9.6c-0.5-1.7-1.5-2.9-3-3.7c-1.5-0.7-2.5-1.4-3-2s-0.8-1.4-0.8-2.3
			c0-1.3,0.5-2.3,1.4-3.3c1-0.9,2.3-1.6,4-2.1c1.5-0.4,3.5-0.6,6-0.6c1.1,0,3.9,0.2,8.4,0.5c0.8,0.1,2.2,0.1,4,0.1
			c3,0,7.1-0.2,12.2-0.6c3.2-0.2,5.5-0.4,6.8-0.4c7.2,0,13.2,1.7,18,5.2c4.3,3.1,6.4,7.5,6.4,13.1c0,3.1-0.7,6-2.2,8.5
			c-1.5,2.6-3.5,4.5-6.1,5.8c-1.1,0.5-1.6,1.2-1.6,1.9c0,1,0.8,1.8,2.5,2.4c3.6,1.3,6.2,3.2,7.8,5.8c1.7,2.6,2.8,6.6,3.6,12
			c0.3,2.2,0.7,3.7,1.3,4.3s1.9,1.3,4,1.9c0.6,0.2,1.2,0.6,1.6,1.3c0.4,0.7,0.7,1.4,0.7,2.2c0,1.1-0.4,2.1-1.2,3.2s-1.9,1.9-3.2,2.5
			c-2.8,1.3-6.7,2-11.7,2c-6.6,0-11.3-1.7-14.2-5.2c-1.3-1.6-2.4-3.5-3.3-5.9c-0.9-2.4-2-6.1-3.2-11.1c-0.8-3.2-1.8-5.5-3-6.8
			C749.4,78,747.7,77.3,745.4,77.2z M742.5,51.3l-0.6,11.8c0,0.1,0,0.3,0,0.5c0,1.2,0.2,2,0.5,2.4s1.1,0.6,2.2,0.6
			c3,0,5.1-0.8,6.5-2.3s2-4,2-7.4c0-6.5-2.3-9.8-7-9.8c-1.3,0-2.3,0.3-2.8,0.9C742.9,48.6,742.6,49.7,742.5,51.3z"/>
		<path id="XMLID_305_" class="st0" d="M814.7,35.9c3.9,0,7.5,0.3,10.9,1c4.6,0.9,6.9,2.9,6.9,5.8c0,1-0.2,1.7-0.7,2.2
			s-1.6,1.2-3.5,2.2c-1.6,0.8-2.6,2.5-3.1,5.1s-0.7,7.8-0.7,15.4c0,12.9,0.3,20.9,1,24c0.2,1,0.6,1.7,1.1,2.3
			c0.5,0.5,1.3,1.1,2.6,1.7c2.2,1,3.4,2.5,3.4,4.4c0,2.7-2.1,4.6-6.2,5.6c-4.5,1.1-9.9,1.6-16.4,1.6c-11,0-16.6-2.1-16.6-6.3
			c0-1.5,1.1-2.9,3.3-4.3c1.7-1,2.6-2.4,2.9-4.2c0.6-3.9,1-12.1,1-24.6c0-8.7-0.4-14.2-1.3-16.7c-0.5-1.4-1.6-2.6-3.4-3.8
			c-1.4-0.9-2.3-1.7-2.8-2.3s-0.7-1.4-0.7-2.3c0-1.5,0.7-2.6,2.1-3.5c1.4-0.9,3.9-1.6,7.4-2.3C806.1,36.4,810.4,35.9,814.7,35.9z"/>
		<path id="XMLID_307_" class="st0" d="M866.7,35.6c3.5,0,8.1,0.9,13.7,2.6c0.7,0.2,1.2,0.3,1.6,0.3c0.3,0,1.4-0.3,3-0.9
			c0.5-0.2,1.1-0.3,1.7-0.3c2.3,0,4.7,1.8,7.2,5.4c2.5,3.6,3.8,7,3.8,10.3c0,1.9-0.6,3.5-1.7,4.8c-1.1,1.3-2.5,2-4.1,2
			c-1.4,0-2.5-0.3-3.3-0.8s-2.7-2.2-5.6-4.8c-4.1-3.8-8.1-5.7-12-5.7c-1.9,0-3.4,0.5-4.5,1.4s-1.7,2.1-1.7,3.6
			c0,2.9,2.6,5.2,7.8,6.7c7,2.1,11.5,3.6,13.5,4.5c8.6,4.2,13,10.4,13,18.5c0,7.2-2.9,13.1-8.8,17.7c-6,4.7-13.9,7-23.6,7
			c-4.3,0-8.9-0.5-13.7-1.6c-4.8-1-8.3-2.2-10.4-3.6c-1.6-1.1-3.1-3.4-4.4-7.1c-1.3-3.6-2-7.2-2-10.6c0-1.7,0.3-2.9,1-3.8
			c0.8-1.1,1.9-1.6,3.2-1.6s2.5,0.7,3.7,2c0.7,0.7,2.4,3.1,5,7.2c1.3,1.9,3.2,3.5,6,4.7c2.7,1.3,5.5,1.9,8.5,1.9
			c2.5,0,4.5-0.5,6.1-1.4s2.3-2.1,2.3-3.6c0-1.4-0.6-2.5-1.8-3.5s-3.2-1.9-5.9-2.7c-4.8-1.5-8.5-2.9-11.1-4.2s-4.9-2.9-7.1-4.8
			c-5.4-4.7-8-10.1-8-16.2c0-3,0.7-5.9,2.1-8.7c1.4-2.8,3.4-5.3,5.9-7.3C851.6,38,858.5,35.6,866.7,35.6z"/>
		<path id="XMLID_309_" class="st0" d="M913.6,37h26.1c5.3,0,9.1-0.1,11.6-0.3c2.4-0.2,4.8-0.7,7.1-1.3c0.7-0.2,1.3-0.3,1.7-0.3
			c1.8,0,3.3,0.9,4.7,2.8c2.2,3.1,3.4,6.8,3.4,11.2c0,2.2-0.5,3.9-1.4,5.2s-2.2,1.9-3.8,1.9c-1.1,0-2-0.2-2.6-0.7s-1.5-1.5-2.5-3.1
			c-1.5-2.3-3.4-3.8-5.7-4.5c-2.3-0.8-6-1.1-11.3-1.1c-3.9,0-6.3,0.7-7.1,2.1c-0.4,0.7-0.7,1.7-0.8,3s-0.1,4.5-0.1,9.6
			c0,2,0.3,3.3,1,3.8s2.5,0.7,5.3,0.7c1.4,0,2.5-0.3,3.1-0.9s1-1.7,1.2-3.2c0.2-2,0.5-3.3,0.7-4s0.7-1.4,1.4-1.9
			c0.7-0.6,1.5-0.9,2.5-0.9c1.4,0,2.6,0.7,3.6,2c0.7,1,1.3,2.7,1.8,5.2s0.7,5.1,0.7,7.8c0,5.4-0.8,9.7-2.5,13.2
			c-0.9,1.9-2.3,2.8-4.2,2.8c-1.2,0-1.9-0.3-2.4-0.9c-0.4-0.6-0.8-1.8-1-3.7c-0.5-3.8-2.7-5.7-6.7-5.7c-1.5,0-2.6,0.5-3.1,1.4
			c-0.6,1-0.8,2.8-0.8,5.4c0,1.6,0.1,3.7,0.3,6.2s0.4,4.2,0.7,5c0.3,1,1.1,1.7,2.5,2.1s3.8,0.6,7,0.6c5.1,0,8.9-0.7,11.5-2
			s4.7-3.7,6.3-7.1c0.9-2,1.8-3.3,2.6-4s1.8-1,3-1c1.4,0,2.6,0.6,3.5,1.9c0.9,1.2,1.4,2.8,1.4,4.6c0,2-0.5,4.6-1.6,7.6
			c-1,3-2.3,5.8-3.9,8.1c-0.8,1.2-1.4,1.9-1.9,2.3s-1.2,0.6-1.9,0.6c-0.6,0-1.6-0.1-2.8-0.3c-2.2-0.4-5.1-0.7-8.7-0.8h-43.1
			c-1.7,0-3.1-0.4-4-1.1c-0.9-0.8-1.4-1.8-1.4-3.2c0-1,0.2-1.7,0.6-2.1c0.4-0.4,1.3-1,2.8-1.7c1-0.4,1.8-1,2.3-1.6s0.9-1.6,1.1-2.8
			c1.1-5.1,1.7-12,1.7-20.7c0-13.1-0.8-21.3-2.4-24.7c-0.3-0.7-0.7-1.2-1.1-1.4c-0.4-0.3-1.3-0.6-2.5-1c-1.9-0.6-2.9-1.9-2.9-3.9
			c0-1.1,0.3-2,1-2.9s1.5-1.4,2.5-1.7C907.3,37.2,909.8,37,913.6,37z"/>
	</g>
</g>
</svg>
